<?xml version="1.0" encoding="UTF-8"?>
<!DOCTYPE svg PUBLIC "-//W3C//DTD SVG 1.1//EN" "http://www.w3.org/Graphics/SVG/1.1/DTD/svg11.dtd">
<svg xmlns="http://www.w3.org/2000/svg" version="1.1" width="128px" height="128px" style="shape-rendering:geometricPrecision; text-rendering:geometricPrecision; image-rendering:optimizeQuality; fill-rule:evenodd; clip-rule:evenodd" xmlns:xlink="http://www.w3.org/1999/xlink">
<g><path style="opacity:0.832" fill="#040304" d="M 111.5,7.5 C 119.339,8.18039 121.839,12.1804 119,19.5C 114.423,22.4905 110.257,21.9905 106.5,18C 103.107,16.8325 100.441,17.6658 98.5,20.5C 111.262,32.0218 117.429,46.3551 117,63.5C 111.259,64.4749 105.425,64.8082 99.5,64.5C 98.148,41.148 85.8147,28.8147 62.5,27.5C 62.5,21.5 62.5,15.5 62.5,9.5C 73.6729,8.89058 84.0063,11.5572 93.5,17.5C 95.3159,16.1851 96.9825,14.6851 98.5,13C 101.167,12.6667 103.833,12.3333 106.5,12C 108.063,10.264 109.73,8.76401 111.5,7.5 Z M 112.5,12.5 C 115.956,13.5362 116.29,15.2029 113.5,17.5C 111.296,16.218 110.962,14.5514 112.5,12.5 Z"/></g>
<g><path style="opacity:0.825" fill="#030204" d="M 11.5,9.5 C 18.6853,9.8482 21.5186,13.5149 20,20.5C 14.4054,25.1675 14.0721,30.1675 19,35.5C 26.6176,22.2291 37.9509,13.8957 53,10.5C 54.8817,11.0933 55.8817,12.4267 56,14.5C 57.7797,19.0033 58.613,23.67 58.5,28.5C 44.3572,31.8072 35.1905,40.4738 31,54.5C 29.2415,64.1527 30.9082,73.1527 36,81.5C 38.5317,84.6219 41.0317,87.6219 43.5,90.5C 41.1153,95.0604 38.1153,99.227 34.5,103C 33.1667,103.667 31.8333,103.667 30.5,103C 12.0282,85.2781 7.36157,64.4447 16.5,40.5C 15.1851,38.6841 13.6851,37.0175 12,35.5C 11.8265,31.4592 11.3265,27.4592 10.5,23.5C 5.04545,18.4342 5.37879,13.7675 11.5,9.5 Z M 12.5,14.5 C 15.9563,15.5362 16.2896,17.2029 13.5,19.5C 11.2957,18.218 10.9624,16.5514 12.5,14.5 Z"/></g>
<g><path style="opacity:1" fill="#b8a8cd" d="M 66.5,13.5 C 74.6407,13.8986 82.3073,16.0653 89.5,20C 89.9574,20.414 90.2907,20.914 90.5,21.5C 89.2485,23.0009 88.2485,24.6675 87.5,26.5C 89.4566,29.0591 91.1233,28.7258 92.5,25.5C 93.723,24.3861 95.0563,24.2195 96.5,25C 107.132,34.4312 112.799,46.2645 113.5,60.5C 110.167,60.5 106.833,60.5 103.5,60.5C 100.842,38.5083 88.5083,26.175 66.5,23.5C 66.5,20.1667 66.5,16.8333 66.5,13.5 Z"/></g>
<g><path style="opacity:1" fill="#684d9a" d="M 48.5,15.5 C 49.8333,15.5 51.1667,15.5 52.5,15.5C 53.1667,18.8333 53.8333,22.1667 54.5,25.5C 40.6023,29.5634 31.4356,38.5634 27,52.5C 24.3483,67.3405 28.1817,80.1738 38.5,91C 36.8333,93.3333 35.1667,95.6667 33.5,98C 32.8333,98.6667 32.1667,98.6667 31.5,98C 15.8416,82.1972 12.175,64.0306 20.5,43.5C 22.323,44.7472 24.323,45.4139 26.5,45.5C 26.067,42.7147 24.7337,40.3813 22.5,38.5C 28.7094,27.9516 37.376,20.2849 48.5,15.5 Z"/></g>
<g><path style="opacity:0.89" fill="#0c0701" d="M 59.5,36.5 C 65.8421,36.3338 72.1754,36.5005 78.5,37C 81.6978,37.8485 84.5311,39.3485 87,41.5C 87.6667,52.1667 87.6667,62.8333 87,73.5C 85.786,75.0488 84.286,76.2155 82.5,77C 78.2297,78.2542 73.8964,79.2542 69.5,80C 59.1662,90.1427 48.9995,89.9761 39,79.5C 33.2926,66.5982 36.7926,57.2649 49.5,51.5C 50.3236,48.2152 50.8236,44.8818 51,41.5C 53.5233,39.1733 56.3567,37.5066 59.5,36.5 Z"/></g>
<g><path style="opacity:1" fill="#f4c61c" d="M 59.5,40.5 C 65.5092,40.3338 71.5092,40.5005 77.5,41C 84.7186,42.4741 85.052,44.4741 78.5,47C 72.1667,47.6667 65.8333,47.6667 59.5,47C 57.3825,46.7398 55.7158,45.7398 54.5,44C 56.2331,42.8111 57.8998,41.6444 59.5,40.5 Z"/></g>
<g><path style="opacity:1" fill="#e49721" d="M 54.5,49.5 C 64.1397,52.0914 73.8064,52.0914 83.5,49.5C 83.822,51.7224 83.1554,53.5557 81.5,55C 76.6689,57.0621 71.6689,57.7288 66.5,57C 63.381,54.1071 59.7143,52.2738 55.5,51.5C 54.7025,51.0431 54.3691,50.3764 54.5,49.5 Z"/></g>
<g><path style="opacity:1" fill="#ebbb07" d="M 49.5,55.5 C 66.2097,55.678 71.3763,63.3447 65,78.5C 55.058,86.1762 47.058,84.5096 41,73.5C 40.3333,70.5 40.3333,67.5 41,64.5C 43.3622,60.9734 46.1955,57.9734 49.5,55.5 Z"/></g>
<g><path style="opacity:1" fill="#100901" d="M 56.5,59.5 C 57.4577,60.9616 58.6244,62.2949 60,63.5C 60.7828,65.3185 60.2828,66.6518 58.5,67.5C 57.4597,65.6251 55.9597,64.2918 54,63.5C 52.7202,63.6135 51.8869,64.2801 51.5,65.5C 54.3713,66.9488 57.2047,68.6154 60,70.5C 60.6667,72.1667 60.6667,73.8333 60,75.5C 58.3732,76.5323 57.2066,77.8656 56.5,79.5C 55.0387,80.6857 53.7054,80.6857 52.5,79.5C 51.7934,77.8656 50.6268,76.5323 49,75.5C 48.51,74.2068 48.3433,72.8734 48.5,71.5C 50.7454,73.3614 53.4121,74.3614 56.5,74.5C 56.719,73.325 56.3857,72.325 55.5,71.5C 49.6188,71.1249 47.4522,68.1249 49,62.5C 50.5185,61.8366 51.6851,60.8366 52.5,59.5C 53.8333,58.1667 55.1667,58.1667 56.5,59.5 Z"/></g>
<g><path style="opacity:1" fill="#eb9819" d="M 80.5,58.5 C 81.5,58.5 82.5,58.5 83.5,58.5C 83.822,60.7224 83.1554,62.5557 81.5,64C 78.1783,65.3924 74.8449,65.5591 71.5,64.5C 70.7542,63.2638 70.4208,61.9305 70.5,60.5C 74.1224,60.678 77.4557,60.0114 80.5,58.5 Z"/></g>
<g><path style="opacity:1" fill="#ec9a19" d="M 52.5,59.5 C 51.6851,60.8366 50.5185,61.8366 49,62.5C 47.4522,68.1249 49.6188,71.1249 55.5,71.5C 56.3857,72.325 56.719,73.325 56.5,74.5C 53.4121,74.3614 50.7454,73.3614 48.5,71.5C 48.3433,72.8734 48.51,74.2068 49,75.5C 50.6268,76.5323 51.7934,77.8656 52.5,79.5C 46.4701,78.4913 43.4701,74.8246 43.5,68.5C 44.2194,63.1137 47.2194,60.1137 52.5,59.5 Z"/></g>
<g><path style="opacity:1" fill="#df9118" d="M 56.5,59.5 C 60.1398,59.4754 62.4731,61.142 63.5,64.5C 61.6231,65.6591 61.1231,67.3258 62,69.5C 62.6708,70.2524 63.5041,70.5858 64.5,70.5C 63.9527,75.3807 61.2861,78.3807 56.5,79.5C 57.2066,77.8656 58.3732,76.5323 60,75.5C 60.6667,73.8333 60.6667,72.1667 60,70.5C 57.2047,68.6154 54.3713,66.9488 51.5,65.5C 51.8869,64.2801 52.7202,63.6135 54,63.5C 55.9597,64.2918 57.4597,65.6251 58.5,67.5C 60.2828,66.6518 60.7828,65.3185 60,63.5C 58.6244,62.2949 57.4577,60.9616 56.5,59.5 Z"/></g>
<g><path style="opacity:1" fill="#fde789" d="M 63.5,64.5 C 68.2219,65.9147 68.5552,67.9147 64.5,70.5C 63.5041,70.5858 62.6708,70.2524 62,69.5C 61.1231,67.3258 61.6231,65.6591 63.5,64.5 Z"/></g>
<g><path style="opacity:1" fill="#e99719" d="M 80.5,67.5 C 81.5,67.5 82.5,67.5 83.5,67.5C 83.822,69.7224 83.1554,71.5557 81.5,73C 78.2432,74.0429 74.9099,74.5429 71.5,74.5C 71.5,72.8333 71.5,71.1667 71.5,69.5C 74.7273,69.3239 77.7273,68.6572 80.5,67.5 Z"/></g>
<g><path style="opacity:0.831" fill="#010404" d="M 99.5,68.5 C 104.142,69.3948 108.809,70.2281 113.5,71C 115.18,71.3468 116.18,72.3468 116.5,74C 113.118,87.0472 106.118,97.7138 95.5,106C 96.2749,108.768 98.1082,109.934 101,109.5C 103.605,109.093 105.771,107.927 107.5,106C 117.333,104.976 119.999,108.976 115.5,118C 111.133,120.154 107.466,119.321 104.5,115.5C 98.2702,115.951 93.4369,113.618 90,108.5C 82.2897,113.011 73.9564,115.011 65,114.5C 55.9548,115.16 47.6215,113.16 40,108.5C 41.3848,103.713 43.3848,99.0464 46,94.5C 46.6891,93.6433 47.5224,92.9767 48.5,92.5C 66.8469,100.455 82.0136,96.4552 94,80.5C 96.1214,76.5932 97.9547,72.5932 99.5,68.5 Z M 110.5,109.5 C 114.138,110.937 114.305,112.604 111,114.5C 107.928,113.119 107.761,111.452 110.5,109.5 Z"/></g>
<g><path style="opacity:1" fill="#1ab7c3" d="M 101.5,73.5 C 104.96,73.5254 108.294,74.1921 111.5,75.5C 108.069,86.4285 101.736,95.2618 92.5,102C 91.8333,102.667 91.1667,102.667 90.5,102C 89.3147,100.647 87.9814,99.4803 86.5,98.5C 85.775,101.058 85.775,103.392 86.5,105.5C 76.3196,110.188 65.6529,111.688 54.5,110C 44.68,109.037 43.0133,104.87 49.5,97.5C 67.0958,103.815 82.2624,100.148 95,86.5C 98.2136,82.6939 100.38,78.3606 101.5,73.5 Z"/></g>
</svg>
